<svg width="680" height="70" viewBox="0 0 680 70" fill="none" xmlns="http://www.w3.org/2000/svg">
<path d="M29.8516 47.1094V40.2188L8.33594 31.9219L6.47266 31.2891L8.33594 30.6914L29.8516 22.2539V15.3633L0.0390625 28.6523V33.7852L29.8516 47.1094ZM59.6289 49.4297C57.5898 49.4297 55.8789 49.0312 54.4961 48.2344C53.1367 47.4141 52.0469 46.3477 51.2266 45.0352C50.3828 43.7461 49.7734 42.293 49.3984 40.6758C49.0469 39.0352 48.8711 37.3828 48.8711 35.7188V34.2422C48.8711 32.6016 49.0469 30.9727 49.3984 29.3555C49.7734 27.7383 50.3828 26.2734 51.2266 24.9609C52.0703 23.6719 53.1719 22.6289 54.5312 21.832C55.9141 21.0117 57.6133 20.6016 59.6289 20.6016C60.9414 20.6016 62.1602 20.8242 63.2852 21.2695C64.4336 21.7148 65.418 22.3242 66.2383 23.0977C67.0586 23.8711 67.7031 24.7734 68.1719 25.8047C68.6641 26.8125 68.9219 27.8906 68.9453 29.0391H75.0977C75.0977 27.1172 74.7109 25.3125 73.9375 23.625C73.1641 21.9375 72.0977 20.4727 70.7383 19.2305C69.3555 18.0117 67.7148 17.0508 65.8164 16.3477C63.9414 15.6211 61.8789 15.2578 59.6289 15.2578C56.7461 15.2578 54.2266 15.7734 52.0703 16.8047C49.9141 17.8359 48.1211 19.2188 46.6914 20.9531C45.2383 22.7109 44.1484 24.7383 43.4219 27.0352C42.6953 29.332 42.332 31.7344 42.332 34.2422V35.7188C42.332 38.25 42.6953 40.6641 43.4219 42.9609C44.1484 45.2344 45.2383 47.2383 46.6914 48.9727C48.1211 50.7305 49.9141 52.125 52.0703 53.1562C54.2266 54.1875 56.7461 54.7031 59.6289 54.7031C61.6445 54.7031 63.5781 54.3633 65.4297 53.6836C67.2812 52.9805 68.9219 52.043 70.3516 50.8711C71.7812 49.7227 72.918 48.3867 73.7617 46.8633C74.6289 45.3164 75.0742 43.6992 75.0977 42.0117H68.9453C68.9219 43.0664 68.6406 44.0508 68.1016 44.9648C67.5859 45.8555 66.8945 46.6289 66.0273 47.2852C65.1602 47.9648 64.1641 48.4922 63.0391 48.8672C61.9375 49.2422 60.8008 49.4297 59.6289 49.4297ZM84.8359 34.6289V35.4023C84.8359 38.1445 85.2344 40.6875 86.0312 43.0312C86.8281 45.375 87.9766 47.4141 89.4766 49.1484C90.9531 50.8828 92.7578 52.2422 94.8906 53.2266C97.0469 54.2109 99.4727 54.7031 102.168 54.7031C104.84 54.7031 107.242 54.2109 109.375 53.2266C111.508 52.2422 113.324 50.8828 114.824 49.1484C116.301 47.4141 117.438 45.375 118.234 43.0312C119.031 40.6875 119.43 38.1445 119.43 35.4023V34.6289C119.43 31.8867 119.031 29.3438 118.234 27C117.438 24.6328 116.301 22.582 114.824 20.8477C113.324 19.1133 111.496 17.7539 109.34 16.7695C107.207 15.7617 104.793 15.2578 102.098 15.2578C99.4258 15.2578 97.0234 15.7617 94.8906 16.7695C92.7578 17.7539 90.9531 19.1133 89.4766 20.8477C87.9766 22.582 86.8281 24.6328 86.0312 27C85.2344 29.3438 84.8359 31.8867 84.8359 34.6289ZM91.3398 35.4023V34.6289C91.3398 32.7773 91.5625 31.0078 92.0078 29.3203C92.4531 27.6094 93.1328 26.1094 94.0469 24.8203C94.9375 23.5312 96.0508 22.5117 97.3867 21.7617C98.7227 20.9883 100.293 20.6016 102.098 20.6016C103.902 20.6016 105.473 20.9883 106.809 21.7617C108.168 22.5117 109.305 23.5312 110.219 24.8203C111.109 26.1094 111.777 27.6094 112.223 29.3203C112.691 31.0078 112.926 32.7773 112.926 34.6289V35.4023C112.926 37.2773 112.703 39.0703 112.258 40.7812C111.812 42.4688 111.145 43.957 110.254 45.2461C109.34 46.5352 108.203 47.5547 106.844 48.3047C105.508 49.0547 103.949 49.4297 102.168 49.4297C100.363 49.4297 98.7812 49.0547 97.4219 48.3047C96.0625 47.5547 94.9375 46.5352 94.0469 45.2461C93.1328 43.957 92.4531 42.4688 92.0078 40.7812C91.5625 39.0703 91.3398 37.2773 91.3398 35.4023ZM128.676 34.6641V35.4023C128.676 38.1211 129.039 40.6641 129.766 43.0312C130.492 45.375 131.512 47.4141 132.824 49.1484C134.137 50.8828 135.719 52.2422 137.57 53.2266C139.445 54.2109 141.531 54.7031 143.828 54.7031C146.172 54.7031 148.223 54.3047 149.98 53.5078C151.738 52.7109 153.25 51.5391 154.516 49.9922L154.797 54H160.773V0H154.27V19.7227C153.027 18.2695 151.551 17.168 149.84 16.418C148.152 15.6445 146.172 15.2578 143.898 15.2578C141.578 15.2578 139.48 15.7383 137.605 16.6992C135.73 17.6602 134.137 18.9961 132.824 20.707C131.488 22.418 130.457 24.4688 129.73 26.8594C129.027 29.2266 128.676 31.8281 128.676 34.6641ZM135.18 35.4023V34.6641C135.18 32.8125 135.379 31.0547 135.777 29.3906C136.176 27.7031 136.797 26.2148 137.641 24.9258C138.461 23.6602 139.516 22.6523 140.805 21.9023C142.117 21.1523 143.688 20.7773 145.516 20.7773C147.648 20.7773 149.43 21.2812 150.859 22.2891C152.289 23.2734 153.426 24.5391 154.27 26.0859V43.7344C153.426 45.3984 152.289 46.7227 150.859 47.707C149.43 48.6914 147.625 49.1836 145.445 49.1836C143.641 49.1836 142.094 48.8203 140.805 48.0938C139.516 47.3438 138.461 46.3359 137.641 45.0703C136.797 43.8047 136.176 42.3398 135.777 40.6758C135.379 39.0117 135.18 37.2539 135.18 35.4023ZM189.953 54.7031C193.656 54.7031 196.762 53.9648 199.27 52.4883C201.801 50.9883 203.699 49.2773 204.965 47.3555L200.992 44.2617C199.797 45.8086 198.297 47.0508 196.492 47.9883C194.688 48.9258 192.625 49.3945 190.305 49.3945C188.547 49.3945 186.941 49.0664 185.488 48.4102C184.035 47.7539 182.793 46.8516 181.762 45.7031C180.754 44.625 179.957 43.3828 179.371 41.9766C178.809 40.5703 178.445 38.9414 178.281 37.0898V36.8438H205.457V33.9258C205.457 31.2773 205.117 28.8164 204.438 26.543C203.781 24.2695 202.773 22.2891 201.414 20.6016C200.055 18.9375 198.344 17.6367 196.281 16.6992C194.242 15.7383 191.852 15.2578 189.109 15.2578C186.93 15.2578 184.797 15.7031 182.711 16.5938C180.648 17.4844 178.809 18.7617 177.191 20.4258C175.551 22.1133 174.238 24.1758 173.254 26.6133C172.27 29.0273 171.777 31.7695 171.777 34.8398V36.3164C171.777 38.9648 172.223 41.4141 173.113 43.6641C174.004 45.9141 175.246 47.8594 176.84 49.5C178.434 51.1406 180.344 52.418 182.57 53.332C184.82 54.2461 187.281 54.7031 189.953 54.7031ZM189.109 20.6016C190.773 20.6016 192.203 20.9062 193.398 21.5156C194.617 22.125 195.625 22.9219 196.422 23.9062C197.219 24.8906 197.84 26.0625 198.285 27.4219C198.73 28.7578 198.953 30.0117 198.953 31.1836V31.5H178.492C178.75 29.7422 179.195 28.1953 179.828 26.8594C180.484 25.5 181.281 24.3516 182.219 23.4141C183.156 22.5 184.211 21.8086 185.383 21.3398C186.555 20.8477 187.797 20.6016 189.109 20.6016ZM244.832 34.2773V28.9336H217.938V34.2773H244.832ZM291.871 35.4023V34.6641C291.871 32.6719 291.707 30.7852 291.379 29.0039C291.051 27.1992 290.57 25.5586 289.938 24.082C289.328 22.7695 288.625 21.5859 287.828 20.5312C287.031 19.4531 286.129 18.5391 285.121 17.7891C283.996 16.9922 282.742 16.3711 281.359 15.9258C279.977 15.4805 278.465 15.2578 276.824 15.2578C275.512 15.2578 274.293 15.3867 273.168 15.6445C272.043 15.9023 271.012 16.2773 270.074 16.7695C269.324 17.168 268.621 17.6484 267.965 18.2109C267.309 18.75 266.711 19.3594 266.172 20.0391V0H259.668V54H265.645L265.961 49.6758C266.383 50.2148 266.828 50.707 267.297 51.1523C267.766 51.5977 268.258 52.0078 268.773 52.3828C269.852 53.1328 271.059 53.707 272.395 54.1055C273.754 54.5039 275.254 54.7031 276.895 54.7031C278.324 54.7031 279.648 54.5273 280.867 54.1758C282.109 53.8242 283.246 53.332 284.277 52.6992C285.707 51.7852 286.926 50.6367 287.934 49.2539C288.965 47.8477 289.797 46.2656 290.43 44.5078C290.898 43.1719 291.25 41.7422 291.484 40.2188C291.742 38.6719 291.871 37.0664 291.871 35.4023ZM285.367 34.6641V35.4023C285.367 36.5273 285.297 37.6289 285.156 38.707C285.016 39.7852 284.793 40.793 284.488 41.7305C284.113 42.9727 283.609 44.0977 282.977 45.1055C282.344 46.1133 281.559 46.9453 280.621 47.6016C279.918 48.1172 279.121 48.5156 278.23 48.7969C277.34 49.0547 276.355 49.1836 275.277 49.1836C274.152 49.1836 273.121 49.043 272.184 48.7617C271.246 48.457 270.402 48.0352 269.652 47.4961C268.902 46.957 268.234 46.3359 267.648 45.6328C267.086 44.9062 266.594 44.1211 266.172 43.2773V26.6484C266.57 25.8047 267.051 25.0312 267.613 24.3281C268.199 23.6016 268.867 22.9688 269.617 22.4297C270.344 21.9141 271.176 21.5156 272.113 21.2344C273.051 20.9297 274.082 20.7773 275.207 20.7773C276.238 20.7773 277.176 20.8945 278.02 21.1289C278.863 21.3633 279.625 21.6914 280.305 22.1133C281.289 22.6992 282.121 23.5078 282.801 24.5391C283.48 25.5703 284.031 26.707 284.453 27.9492C284.758 28.957 284.98 30.0352 285.121 31.1836C285.285 32.3086 285.367 33.4688 285.367 34.6641ZM305.934 69.3633C307.645 69.3633 309.156 69.0469 310.469 68.4141C311.781 67.7812 312.93 66.9961 313.914 66.0586C314.898 65.1211 315.73 64.1016 316.41 63C317.113 61.8984 317.688 60.8555 318.133 59.8711L337.434 15.9609H330.156L320.348 40.6406L318.555 45.1055L316.867 40.5L306.426 15.9609H299.148L315.531 52.207L312.93 57.2695C312.695 57.7383 312.367 58.3359 311.945 59.0625C311.547 59.7891 311.066 60.4922 310.504 61.1719C309.918 61.8516 309.25 62.4375 308.5 62.9297C307.773 63.4219 306.965 63.668 306.074 63.668C305.746 63.668 305.289 63.6445 304.703 63.5977C304.141 63.5742 303.566 63.5391 302.98 63.4922L301.926 68.8008C302.348 68.8945 302.969 69.0117 303.789 69.1523C304.609 69.293 305.324 69.3633 305.934 69.3633ZM374.559 34.2773V28.9336H347.664V34.2773H374.559ZM614.148 58.3945L635.488 2.8125H629.688L608.312 58.3945H614.148ZM648.953 47.0742L679.996 33.75V28.6172L648.953 15.3281V22.043L671.699 30.4805L673.809 31.1484L671.699 31.7461L648.953 40.3242V47.0742Z" fill="#282C34"/>
<path d="M387.215 34.6992V35.4375C387.215 38.2031 387.566 40.7695 388.27 43.1367C388.996 45.4805 390.027 47.5078 391.363 49.2188C392.699 50.9297 394.305 52.2773 396.18 53.2617C398.078 54.2227 400.211 54.7031 402.578 54.7031C403.773 54.7031 404.887 54.5742 405.918 54.3164C406.973 54.0586 407.934 53.6953 408.801 53.2266C409.387 52.8984 409.938 52.5234 410.453 52.1016C410.969 51.6797 411.461 51.2109 411.93 50.6953V52.875C411.93 54.1641 411.742 55.3242 411.367 56.3555C411.016 57.3867 410.5 58.2539 409.82 58.957C409.07 59.7305 408.133 60.3164 407.008 60.7148C405.906 61.1133 404.641 61.3125 403.211 61.3125C402.32 61.3125 401.453 61.2188 400.609 61.0312C399.789 60.8672 398.992 60.6094 398.219 60.2578C397.422 59.9062 396.66 59.4492 395.934 58.8867C395.207 58.3477 394.527 57.7148 393.895 56.9883L389.5 62.9297C390.32 63.9844 391.305 64.8867 392.453 65.6367C393.602 66.4102 394.82 67.043 396.109 67.5352C397.398 68.0273 398.699 68.3906 400.012 68.625C401.324 68.8594 402.555 68.9766 403.703 68.9766C406.375 68.9766 408.812 68.6133 411.016 67.8867C413.242 67.1836 415.152 66.1406 416.746 64.7578C418.316 63.375 419.535 61.6758 420.402 59.6602C421.293 57.6445 421.738 55.3477 421.738 52.7695V15.9609H412.844L412.457 19.582C411.988 18.9961 411.473 18.4688 410.91 18C410.348 17.5078 409.738 17.0859 409.082 16.7344C408.215 16.2422 407.242 15.8789 406.164 15.6445C405.109 15.3867 403.938 15.2578 402.648 15.2578C400.258 15.2578 398.113 15.7266 396.215 16.6641C394.316 17.6016 392.699 18.9258 391.363 20.6367C390.027 22.3477 388.996 24.3984 388.27 26.7891C387.566 29.1797 387.215 31.8164 387.215 34.6992ZM397.023 35.4375V34.6992C397.023 33.1055 397.188 31.6172 397.516 30.2344C397.844 28.8281 398.348 27.5977 399.027 26.543C399.684 25.5117 400.516 24.7031 401.523 24.1172C402.531 23.5078 403.727 23.2031 405.109 23.2031C405.859 23.2031 406.551 23.2734 407.184 23.4141C407.84 23.5547 408.438 23.7539 408.977 24.0117C409.609 24.3164 410.172 24.7148 410.664 25.207C411.156 25.6992 411.578 26.2734 411.93 26.9297V43.0312C411.602 43.6172 411.215 44.1445 410.77 44.6133C410.324 45.082 409.809 45.4805 409.223 45.8086C408.66 46.1133 408.027 46.3477 407.324 46.5117C406.645 46.6758 405.883 46.7578 405.039 46.7578C403.656 46.7578 402.461 46.4648 401.453 45.8789C400.445 45.293 399.613 44.4844 398.957 43.4531C398.301 42.4453 397.809 41.2617 397.48 39.9023C397.176 38.5195 397.023 37.0312 397.023 35.4375ZM434.043 15.9609V23.9414H444.871V46.0547H434.043V54H465.051V46.0547H454.75V15.9609H434.043ZM444.168 6.22266C444.168 6.97266 444.297 7.67578 444.555 8.33203C444.836 8.96484 445.223 9.50391 445.715 9.94922C446.207 10.418 446.793 10.7813 447.473 11.0391C448.176 11.2969 448.949 11.4258 449.793 11.4258C451.527 11.4258 452.898 10.9453 453.906 9.98438C454.938 9 455.453 7.74609 455.453 6.22266C455.453 4.69922 454.938 3.45703 453.906 2.49609C452.898 1.51172 451.527 1.01953 449.793 1.01953C448.949 1.01953 448.176 1.14844 447.473 1.40625C446.793 1.66406 446.207 2.01562 445.715 2.46094C445.223 2.92969 444.836 3.49219 444.555 4.14844C444.297 4.78125 444.168 5.47266 444.168 6.22266ZM502 15.2578C499.445 15.2578 497.09 15.8789 494.934 17.1211C492.777 18.3398 490.926 20.0273 489.379 22.1836L489.309 21.3398L488.922 15.9609H479.816V54H489.59V31.1484C490.035 30.0703 490.598 29.1328 491.277 28.3359C491.957 27.5391 492.777 26.8828 493.738 26.3672C494.535 25.9219 495.438 25.5938 496.445 25.3828C497.477 25.1484 498.625 25.0312 499.891 25.0312C501.109 25.0312 502.387 25.1133 503.723 25.2773C505.082 25.418 506.406 25.6406 507.695 25.9453L509.137 16.207C508.363 15.9727 507.344 15.7617 506.078 15.5742C504.836 15.3633 503.477 15.2578 502 15.2578ZM519.965 0V7.98047H531.355V46.0547H519.965V54H552.133V46.0547H541.234V0H519.965ZM585.707 43.5586C585.707 44.1445 585.555 44.6836 585.25 45.1758C584.969 45.668 584.535 46.1016 583.949 46.4766C583.34 46.8516 582.555 47.1562 581.594 47.3906C580.656 47.6016 579.555 47.707 578.289 47.707C577.234 47.707 576.203 47.6016 575.195 47.3906C574.211 47.1797 573.332 46.8398 572.559 46.3711C571.785 45.9258 571.152 45.3398 570.66 44.6133C570.168 43.8633 569.887 42.9727 569.816 41.9414H560.5C560.5 43.4883 560.875 45.0352 561.625 46.582C562.398 48.1055 563.523 49.4648 565 50.6602C566.477 51.8789 568.305 52.8633 570.484 53.6133C572.688 54.3633 575.219 54.7383 578.078 54.7383C580.68 54.7383 583.035 54.457 585.145 53.8945C587.254 53.3086 589.059 52.5 590.559 51.4688C592.035 50.4375 593.172 49.2188 593.969 47.8125C594.789 46.3828 595.199 44.8242 595.199 43.1367C595.199 41.3086 594.789 39.7383 593.969 38.4258C593.172 37.0898 592.059 35.9531 590.629 35.0156C589.199 34.1016 587.5 33.3516 585.531 32.7656C583.562 32.1797 581.43 31.6992 579.133 31.3242C577.539 31.0898 576.227 30.8203 575.195 30.5156C574.164 30.1875 573.355 29.8242 572.77 29.4258C572.16 29.0508 571.738 28.6289 571.504 28.1602C571.27 27.668 571.152 27.1406 571.152 26.5781C571.152 26.0156 571.281 25.4883 571.539 24.9961C571.82 24.4805 572.219 24.0352 572.734 23.6602C573.297 23.2383 574.023 22.9102 574.914 22.6758C575.805 22.4414 576.848 22.3242 578.043 22.3242C579.449 22.3242 580.645 22.5 581.629 22.8516C582.637 23.2031 583.434 23.6719 584.02 24.2578C584.441 24.7031 584.758 25.207 584.969 25.7695C585.18 26.3086 585.285 26.8945 585.285 27.5273H595.059C595.059 25.7695 594.672 24.1406 593.898 22.6406C593.125 21.1406 592.012 19.8398 590.559 18.7383C589.082 17.6602 587.289 16.8164 585.18 16.207C583.07 15.5742 580.691 15.2578 578.043 15.2578C575.512 15.2578 573.238 15.5742 571.223 16.207C569.207 16.8398 567.496 17.6953 566.09 18.7734C564.684 19.8516 563.605 21.1055 562.855 22.5352C562.105 23.9648 561.73 25.4648 561.73 27.0352C561.73 28.6523 562.094 30.082 562.82 31.3242C563.57 32.5664 564.602 33.6562 565.914 34.5938C567.227 35.5547 568.797 36.375 570.625 37.0547C572.477 37.7109 574.516 38.2617 576.742 38.707C578.5 39.0352 579.953 39.3633 581.102 39.6914C582.25 40.0195 583.176 40.3711 583.879 40.7461C584.559 41.1445 585.027 41.5664 585.285 42.0117C585.566 42.457 585.707 42.9727 585.707 43.5586Z" fill="#570861"/>
</svg>
