<svg width="177" height="244" viewBox="0 0 177 244" fill="none" xmlns="http://www.w3.org/2000/svg">
<path d="M21.4609 34.1191V29.2383L6.2207 23.3613L4.90088 22.9131L6.2207 22.4897L21.4609 16.5132V11.6323L0.34375 21.0454V24.6812L21.4609 34.1191ZM42.5532 35.7627C41.1089 35.7627 39.897 35.4805 38.9175 34.916C37.9546 34.335 37.1826 33.5796 36.6016 32.6499C36.0039 31.7368 35.5723 30.7075 35.3066 29.562C35.0576 28.3999 34.9331 27.2295 34.9331 26.0508V25.0049C34.9331 23.8428 35.0576 22.689 35.3066 21.5435C35.5723 20.3979 36.0039 19.3604 36.6016 18.4307C37.1992 17.5176 37.9795 16.7788 38.9424 16.2144C39.9219 15.6333 41.1255 15.3428 42.5532 15.3428C43.4829 15.3428 44.3462 15.5005 45.1431 15.8159C45.9565 16.1313 46.6538 16.563 47.2349 17.1108C47.8159 17.6587 48.2725 18.2979 48.6045 19.0283C48.9531 19.7422 49.1357 20.5059 49.1523 21.3193H53.5103C53.5103 19.958 53.2363 18.6797 52.6885 17.4844C52.1406 16.2891 51.3853 15.2515 50.4224 14.3716C49.4429 13.5083 48.2808 12.8276 46.936 12.3296C45.6079 11.8149 44.147 11.5576 42.5532 11.5576C40.5112 11.5576 38.7266 11.9229 37.1992 12.6533C35.6719 13.3838 34.4019 14.3633 33.3892 15.5918C32.3599 16.8369 31.5879 18.2729 31.0732 19.8999C30.5586 21.5269 30.3013 23.2285 30.3013 25.0049V26.0508C30.3013 27.8438 30.5586 29.5537 31.0732 31.1807C31.5879 32.791 32.3599 34.2104 33.3892 35.439C34.4019 36.6841 35.6719 37.6719 37.1992 38.4023C38.7266 39.1328 40.5112 39.498 42.5532 39.498C43.981 39.498 45.3506 39.2573 46.6621 38.7759C47.9736 38.2778 49.1357 37.6138 50.1484 36.7837C51.1611 35.9702 51.9663 35.0239 52.564 33.9448C53.1782 32.8491 53.4937 31.7036 53.5103 30.5083H49.1523C49.1357 31.2554 48.9365 31.9526 48.5547 32.6001C48.1895 33.231 47.6997 33.7788 47.0854 34.2437C46.4712 34.7251 45.7656 35.0986 44.9688 35.3643C44.1885 35.6299 43.3833 35.7627 42.5532 35.7627ZM60.4082 25.2788V25.8267C60.4082 27.769 60.6904 29.5703 61.2549 31.2305C61.8193 32.8906 62.6328 34.335 63.6953 35.5635C64.7412 36.792 66.0195 37.7549 67.5303 38.4521C69.0576 39.1494 70.7759 39.498 72.6851 39.498C74.5776 39.498 76.2793 39.1494 77.79 38.4521C79.3008 37.7549 80.5874 36.792 81.6499 35.5635C82.6958 34.335 83.501 32.8906 84.0654 31.2305C84.6299 29.5703 84.9121 27.769 84.9121 25.8267V25.2788C84.9121 23.3364 84.6299 21.5352 84.0654 19.875C83.501 18.1982 82.6958 16.7456 81.6499 15.5171C80.5874 14.2886 79.2925 13.3257 77.7651 12.6284C76.2544 11.9146 74.5444 11.5576 72.6353 11.5576C70.7427 11.5576 69.041 11.9146 67.5303 12.6284C66.0195 13.3257 64.7412 14.2886 63.6953 15.5171C62.6328 16.7456 61.8193 18.1982 61.2549 19.875C60.6904 21.5352 60.4082 23.3364 60.4082 25.2788ZM65.0151 25.8267V25.2788C65.0151 23.9673 65.1729 22.7139 65.4883 21.5186C65.8037 20.3066 66.2852 19.2441 66.9326 18.3311C67.5635 17.418 68.3521 16.6958 69.2983 16.1646C70.2446 15.6167 71.3569 15.3428 72.6353 15.3428C73.9136 15.3428 75.0259 15.6167 75.9722 16.1646C76.9351 16.6958 77.7402 17.418 78.3877 18.3311C79.0186 19.2441 79.4917 20.3066 79.8071 21.5186C80.1392 22.7139 80.3052 23.9673 80.3052 25.2788V25.8267C80.3052 27.1548 80.1475 28.4248 79.832 29.6367C79.5166 30.832 79.0435 31.8862 78.4126 32.7993C77.7651 33.7124 76.96 34.4346 75.9971 34.9658C75.0508 35.4971 73.9468 35.7627 72.6851 35.7627C71.4067 35.7627 70.2861 35.4971 69.3232 34.9658C68.3604 34.4346 67.5635 33.7124 66.9326 32.7993C66.2852 31.8862 65.8037 30.832 65.4883 29.6367C65.1729 28.4248 65.0151 27.1548 65.0151 25.8267ZM91.4614 25.3037V25.8267C91.4614 27.7524 91.7188 29.5537 92.2334 31.2305C92.748 32.8906 93.4702 34.335 94.3999 35.5635C95.3296 36.792 96.4502 37.7549 97.7617 38.4521C99.0898 39.1494 100.567 39.498 102.194 39.498C103.854 39.498 105.307 39.2158 106.552 38.6514C107.797 38.0869 108.868 37.2568 109.765 36.1611L109.964 39H114.197V0.75H109.59V14.7202C108.71 13.6909 107.665 12.9106 106.453 12.3794C105.257 11.8315 103.854 11.5576 102.244 11.5576C100.601 11.5576 99.1147 11.8979 97.7866 12.5786C96.4585 13.2593 95.3296 14.2056 94.3999 15.4175C93.4536 16.6294 92.7231 18.082 92.2085 19.7754C91.7104 21.4521 91.4614 23.2949 91.4614 25.3037ZM96.0684 25.8267V25.3037C96.0684 23.9922 96.2095 22.7471 96.4917 21.5684C96.7739 20.373 97.2139 19.3188 97.8115 18.4058C98.3926 17.5093 99.1396 16.7954 100.053 16.2642C100.982 15.7329 102.095 15.4673 103.39 15.4673C104.9 15.4673 106.162 15.8242 107.175 16.5381C108.188 17.2354 108.993 18.1318 109.59 19.2275V31.7285C108.993 32.9072 108.188 33.8452 107.175 34.5425C106.162 35.2397 104.884 35.5884 103.34 35.5884C102.062 35.5884 100.966 35.3311 100.053 34.8164C99.1396 34.2852 98.3926 33.5713 97.8115 32.6748C97.2139 31.7783 96.7739 30.7407 96.4917 29.562C96.2095 28.3833 96.0684 27.1382 96.0684 25.8267ZM134.866 39.498C137.489 39.498 139.689 38.9751 141.465 37.9292C143.258 36.8667 144.603 35.6548 145.5 34.2935L142.686 32.1021C141.839 33.1978 140.776 34.0776 139.498 34.7417C138.22 35.4058 136.759 35.7378 135.115 35.7378C133.87 35.7378 132.733 35.5054 131.704 35.0405C130.674 34.5757 129.794 33.9365 129.064 33.123C128.35 32.3594 127.786 31.4795 127.371 30.4834C126.972 29.4873 126.715 28.3335 126.599 27.022V26.8477H145.848V24.7808C145.848 22.9048 145.607 21.1616 145.126 19.5513C144.661 17.9409 143.947 16.5381 142.984 15.3428C142.021 14.1641 140.81 13.2427 139.349 12.5786C137.904 11.8979 136.211 11.5576 134.269 11.5576C132.725 11.5576 131.214 11.873 129.736 12.5039C128.275 13.1348 126.972 14.0396 125.827 15.2183C124.665 16.4136 123.735 17.8745 123.038 19.6011C122.34 21.311 121.992 23.2534 121.992 25.4282V26.4741C121.992 28.3501 122.307 30.085 122.938 31.6787C123.569 33.2725 124.449 34.6504 125.578 35.8125C126.707 36.9746 128.06 37.8794 129.637 38.5269C131.23 39.1743 132.974 39.498 134.866 39.498ZM134.269 15.3428C135.447 15.3428 136.46 15.5586 137.307 15.9902C138.17 16.4219 138.884 16.9863 139.448 17.6836C140.013 18.3809 140.453 19.2109 140.768 20.1738C141.083 21.1201 141.241 22.0083 141.241 22.8384V23.0625H126.748C126.931 21.8174 127.246 20.7217 127.694 19.7754C128.159 18.8125 128.724 17.999 129.388 17.335C130.052 16.6875 130.799 16.1978 131.629 15.8657C132.459 15.5171 133.339 15.3428 134.269 15.3428ZM173.739 25.0298V21.2446H154.688V25.0298H173.739ZM84.5386 92.8267V92.3037C84.5386 90.8926 84.4224 89.5562 84.1899 88.2944C83.9575 87.0161 83.6172 85.854 83.1689 84.8081C82.7373 83.8784 82.2393 83.04 81.6748 82.293C81.1104 81.5293 80.4712 80.8818 79.7573 80.3506C78.9604 79.7861 78.0723 79.3462 77.0928 79.0308C76.1133 78.7153 75.0425 78.5576 73.8804 78.5576C72.9507 78.5576 72.0874 78.6489 71.2905 78.8315C70.4937 79.0142 69.7632 79.2798 69.0991 79.6284C68.5679 79.9106 68.0698 80.251 67.605 80.6494C67.1401 81.0312 66.7168 81.4629 66.335 81.9443V67.75H61.728V106H65.9614L66.1855 102.937C66.4844 103.319 66.7998 103.667 67.1318 103.983C67.4639 104.298 67.8125 104.589 68.1777 104.854C68.9414 105.386 69.7964 105.792 70.7427 106.075C71.7056 106.357 72.7681 106.498 73.9302 106.498C74.9429 106.498 75.8809 106.374 76.7441 106.125C77.624 105.875 78.4292 105.527 79.1597 105.079C80.1724 104.431 81.0356 103.618 81.7495 102.638C82.48 101.642 83.0693 100.521 83.5176 99.2764C83.8496 98.3301 84.0986 97.3174 84.2646 96.2383C84.4473 95.1426 84.5386 94.0054 84.5386 92.8267ZM79.9316 92.3037V92.8267C79.9316 93.6235 79.8818 94.4038 79.7822 95.1675C79.6826 95.9312 79.5249 96.645 79.3091 97.3091C79.0435 98.189 78.6865 98.9858 78.2383 99.6997C77.79 100.414 77.2339 101.003 76.5698 101.468C76.0718 101.833 75.5073 102.115 74.8765 102.314C74.2456 102.497 73.5483 102.588 72.7847 102.588C71.9878 102.588 71.2573 102.489 70.5933 102.29C69.9292 102.074 69.3315 101.775 68.8003 101.393C68.269 101.011 67.7959 100.571 67.3809 100.073C66.9824 99.5586 66.6338 99.0024 66.335 98.4048V86.626C66.6172 86.0283 66.9575 85.4805 67.356 84.9824C67.771 84.4678 68.2441 84.0195 68.7754 83.6377C69.29 83.2725 69.8794 82.9902 70.5435 82.791C71.2075 82.5752 71.938 82.4673 72.7349 82.4673C73.4653 82.4673 74.1294 82.5503 74.7271 82.7163C75.3247 82.8823 75.8643 83.1147 76.3457 83.4136C77.043 83.8286 77.6323 84.4014 78.1138 85.1318C78.5952 85.8623 78.9854 86.6675 79.2842 87.5474C79.5 88.2612 79.6577 89.0249 79.7573 89.8384C79.8735 90.6353 79.9316 91.457 79.9316 92.3037ZM94.4995 116.882C95.7114 116.882 96.7822 116.658 97.7119 116.21C98.6416 115.762 99.4551 115.206 100.152 114.542C100.85 113.877 101.439 113.155 101.92 112.375C102.418 111.595 102.825 110.856 103.141 110.159L116.812 79.0557H111.657L104.709 96.5371L103.439 99.6997L102.244 96.4375L94.8481 79.0557H89.6934L101.298 104.73L99.4551 108.316C99.2891 108.648 99.0566 109.071 98.7578 109.586C98.4756 110.101 98.1353 110.599 97.7368 111.08C97.3218 111.562 96.8486 111.977 96.3174 112.325C95.8027 112.674 95.23 112.848 94.5991 112.848C94.3667 112.848 94.043 112.832 93.6279 112.798C93.2295 112.782 92.8228 112.757 92.4077 112.724L91.6606 116.484C91.9595 116.55 92.3994 116.633 92.9805 116.733C93.5615 116.833 94.0679 116.882 94.4995 116.882ZM20.5894 159.03V155.245H1.53906V159.03H20.5894ZM67.7793 243.113L82.895 203.742H78.7861L63.6455 243.113H67.7793ZM92.4326 235.094L114.421 225.656V222.021L92.4326 212.607V217.364L108.544 223.34L110.039 223.813L108.544 224.237L92.4326 230.313V235.094Z" fill="#282C34"/>
<path d="M29.5542 159.329V159.852C29.5542 161.811 29.8032 163.628 30.3013 165.305C30.8159 166.965 31.5464 168.401 32.4927 169.613C33.439 170.825 34.5762 171.78 35.9043 172.477C37.249 173.158 38.7598 173.498 40.4365 173.498C41.2832 173.498 42.0718 173.407 42.8022 173.224C43.5493 173.042 44.23 172.784 44.8442 172.452C45.2593 172.22 45.6494 171.954 46.0146 171.655C46.3799 171.356 46.7285 171.024 47.0605 170.659V172.203C47.0605 173.116 46.9277 173.938 46.6621 174.668C46.4131 175.399 46.0479 176.013 45.5664 176.511C45.0352 177.059 44.3711 177.474 43.5742 177.756C42.7939 178.039 41.8975 178.18 40.8848 178.18C40.2539 178.18 39.6396 178.113 39.042 177.98C38.4609 177.864 37.8965 177.682 37.3486 177.433C36.7842 177.184 36.2446 176.86 35.73 176.461C35.2153 176.08 34.7339 175.631 34.2856 175.117L31.1729 179.325C31.7539 180.072 32.4512 180.711 33.2646 181.243C34.0781 181.791 34.9414 182.239 35.8545 182.587C36.7676 182.936 37.689 183.193 38.6187 183.359C39.5483 183.525 40.4199 183.608 41.2334 183.608C43.126 183.608 44.8525 183.351 46.4131 182.836C47.9902 182.338 49.3433 181.6 50.4722 180.62C51.5845 179.641 52.4478 178.437 53.062 177.009C53.6929 175.582 54.0083 173.955 54.0083 172.128V146.056H47.708L47.4341 148.621C47.1021 148.206 46.7368 147.832 46.3384 147.5C45.9399 147.151 45.5083 146.853 45.0435 146.604C44.4292 146.255 43.7402 145.998 42.9766 145.832C42.2295 145.649 41.3994 145.558 40.4863 145.558C38.793 145.558 37.2739 145.89 35.9292 146.554C34.5845 147.218 33.439 148.156 32.4927 149.368C31.5464 150.58 30.8159 152.032 30.3013 153.726C29.8032 155.419 29.5542 157.287 29.5542 159.329ZM36.502 159.852V159.329C36.502 158.2 36.6182 157.146 36.8506 156.166C37.083 155.17 37.4399 154.298 37.9214 153.551C38.3862 152.821 38.9756 152.248 39.6895 151.833C40.4033 151.401 41.25 151.186 42.2295 151.186C42.7607 151.186 43.2505 151.235 43.6987 151.335C44.1636 151.435 44.5869 151.576 44.9688 151.758C45.417 151.974 45.8154 152.256 46.1641 152.605C46.5127 152.954 46.8115 153.36 47.0605 153.825V165.23C46.8281 165.646 46.5542 166.019 46.2388 166.351C45.9233 166.683 45.5581 166.965 45.1431 167.198C44.7446 167.414 44.2964 167.58 43.7983 167.696C43.3169 167.812 42.7773 167.87 42.1797 167.87C41.2002 167.87 40.3535 167.663 39.6396 167.248C38.9258 166.833 38.3364 166.26 37.8716 165.529C37.4067 164.815 37.0581 163.977 36.8257 163.014C36.6099 162.035 36.502 160.98 36.502 159.852ZM62.7241 146.056V151.708H70.394V167.372H62.7241V173H84.688V167.372H77.3916V146.056H62.7241ZM69.896 139.158C69.896 139.689 69.9873 140.187 70.1699 140.652C70.3691 141.1 70.6431 141.482 70.9917 141.797C71.3403 142.129 71.7554 142.387 72.2368 142.569C72.7349 142.752 73.2827 142.843 73.8804 142.843C75.1089 142.843 76.0801 142.503 76.7939 141.822C77.5244 141.125 77.8896 140.237 77.8896 139.158C77.8896 138.079 77.5244 137.199 76.7939 136.518C76.0801 135.821 75.1089 135.472 73.8804 135.472C73.2827 135.472 72.7349 135.563 72.2368 135.746C71.7554 135.929 71.3403 136.178 70.9917 136.493C70.6431 136.825 70.3691 137.224 70.1699 137.688C69.9873 138.137 69.896 138.626 69.896 139.158ZM110.86 145.558C109.051 145.558 107.382 145.998 105.855 146.877C104.328 147.741 103.016 148.936 101.92 150.463L101.871 149.866L101.597 146.056H95.147V173H102.07V156.813C102.385 156.05 102.784 155.386 103.265 154.821C103.747 154.257 104.328 153.792 105.008 153.427C105.573 153.111 106.212 152.879 106.926 152.729C107.656 152.563 108.47 152.48 109.366 152.48C110.229 152.48 111.134 152.539 112.081 152.655C113.043 152.754 113.981 152.912 114.895 153.128L115.916 146.23C115.368 146.064 114.646 145.915 113.749 145.782C112.869 145.632 111.906 145.558 110.86 145.558ZM123.585 134.75V140.403H131.654V167.372H123.585V173H146.371V167.372H138.651V134.75H123.585ZM170.153 165.604C170.153 166.019 170.045 166.401 169.829 166.75C169.63 167.098 169.323 167.405 168.908 167.671C168.476 167.937 167.92 168.152 167.239 168.318C166.575 168.468 165.795 168.542 164.898 168.542C164.151 168.542 163.421 168.468 162.707 168.318C162.01 168.169 161.387 167.928 160.839 167.596C160.292 167.281 159.843 166.866 159.495 166.351C159.146 165.82 158.947 165.189 158.897 164.458H152.298C152.298 165.554 152.563 166.65 153.095 167.746C153.643 168.825 154.439 169.788 155.485 170.634C156.531 171.498 157.826 172.195 159.37 172.726C160.931 173.257 162.724 173.523 164.749 173.523C166.592 173.523 168.26 173.324 169.754 172.925C171.249 172.51 172.527 171.938 173.589 171.207C174.635 170.477 175.44 169.613 176.005 168.617C176.586 167.604 176.876 166.5 176.876 165.305C176.876 164.01 176.586 162.898 176.005 161.968C175.44 161.022 174.652 160.217 173.639 159.553C172.626 158.905 171.423 158.374 170.028 157.959C168.634 157.544 167.123 157.204 165.496 156.938C164.367 156.772 163.438 156.581 162.707 156.365C161.977 156.133 161.404 155.875 160.989 155.593C160.557 155.328 160.258 155.029 160.092 154.697C159.926 154.348 159.843 153.975 159.843 153.576C159.843 153.178 159.935 152.804 160.117 152.456C160.316 152.09 160.599 151.775 160.964 151.509C161.362 151.21 161.877 150.978 162.508 150.812C163.139 150.646 163.877 150.563 164.724 150.563C165.72 150.563 166.567 150.688 167.264 150.937C167.978 151.186 168.542 151.518 168.958 151.933C169.256 152.248 169.48 152.605 169.63 153.003C169.779 153.385 169.854 153.8 169.854 154.249H176.777C176.777 153.003 176.503 151.85 175.955 150.787C175.407 149.725 174.619 148.803 173.589 148.023C172.543 147.259 171.273 146.662 169.779 146.23C168.285 145.782 166.6 145.558 164.724 145.558C162.931 145.558 161.321 145.782 159.893 146.23C158.465 146.678 157.253 147.284 156.257 148.048C155.261 148.812 154.498 149.7 153.966 150.712C153.435 151.725 153.169 152.788 153.169 153.9C153.169 155.045 153.427 156.058 153.941 156.938C154.473 157.818 155.203 158.59 156.133 159.254C157.062 159.935 158.175 160.516 159.47 160.997C160.781 161.462 162.226 161.852 163.803 162.167C165.048 162.4 166.077 162.632 166.891 162.865C167.704 163.097 168.36 163.346 168.858 163.612C169.339 163.894 169.671 164.193 169.854 164.508C170.053 164.824 170.153 165.189 170.153 165.604Z" fill="#570861"/>
</svg>
